# xmcd
# 
# Track frame offsets:
#     150
#     19546
#     34762
#     54001
#     69761
#     85063
#     103926
#     124187
#     143194
#     160366
#     180212
#     195136
# 
# Disc length: 2835
# 
# Revision: 0
# Processed by: cddbd v1.5.2PL0 Copyright (c) Steve Scherf et al.
# Submitted via: fre:ac v1.0.27
# 
DISCID=890b110c
DTITLE=Blair Lane - When Life Gets In The Way Of Living
DYEAR=2013
DGENRE=Country
TTITLE0=When Life Gets In The Way Of Living
TTITLE1=Without You
TTITLE2=Pretty Buckle
TTITLE3=Bruised not Broken
TTITLE4=Coming Home
TTITLE5=Tell Him Your Troubles
TTITLE6=Falling Apart
TTITLE7=Get Along
TTITLE8=Falling In Love
TTITLE9=Tear Down These Walls
TTITLE10=You May Hear Me Say
TTITLE11=The First Noel
EXTD=
EXTT0=
EXTT1=
EXTT2=
EXTT3=
EXTT4=
EXTT5=
EXTT6=
EXTT7=
EXTT8=
EXTT9=
EXTT10=
EXTT11=
PLAYORDER=
